<svg width="846" height="93" viewBox="0 0 846 93" fill="none" xmlns="http://www.w3.org/2000/svg">
<path d="M796.304 13.184L845.776 43.776V56.128L796.688 86.72L789.648 76.608L833.488 49.984L789.648 23.744L796.304 13.184Z" fill="white"/>
<path d="M703.682 13.056V39.616H735.682V50.88H703.682V78.848H742.658V90.112H688.834V1.79199H741.954L740.29 13.056H703.682Z" fill="white"/>
<path d="M617.78 90.112L589.684 14.976C589.812 16.2987 589.983 18.176 590.196 20.608C590.452 23.04 590.687 25.856 590.9 29.056C591.156 32.256 591.369 35.648 591.54 39.232C591.711 42.816 591.796 46.4 591.796 49.984V90.112H578.612V1.79199H597.876L626.036 76.992C625.823 75.2 625.545 72.576 625.204 69.12C624.905 65.6213 624.607 61.568 624.308 56.96C624.052 52.3093 623.924 47.3387 623.924 42.048V1.79199H637.108V90.112H617.78Z" fill="white"/>
<path d="M536.55 45.952C536.55 55.04 535.291 63.04 532.774 69.952C530.257 76.8213 526.502 82.1973 521.51 86.08C516.518 89.92 510.331 91.84 502.95 91.84C495.611 91.84 489.425 89.9627 484.39 86.208C479.398 82.4107 475.643 77.0987 473.126 70.272C470.609 63.4027 469.35 55.3387 469.35 46.08C469.35 36.9493 470.609 28.9493 473.126 22.08C475.643 15.168 479.398 9.77067 484.39 5.888C489.425 1.96267 495.611 0 502.95 0C510.331 0 516.518 1.89867 521.51 5.69601C526.502 9.49334 530.257 14.848 532.774 21.76C535.291 28.6293 536.55 36.6933 536.55 45.952ZM521.19 45.952C521.19 34.5173 519.761 25.9413 516.902 20.224C514.086 14.464 509.435 11.584 502.95 11.584C496.465 11.584 491.793 14.4853 488.934 20.288C486.118 26.048 484.71 34.6453 484.71 46.08C484.71 57.472 486.161 66.0267 489.062 71.744C491.963 77.4187 496.593 80.256 502.95 80.256C509.521 80.256 514.193 77.3973 516.966 71.68C519.782 65.92 521.19 57.344 521.19 45.952Z" fill="white"/>
<path d="M415.832 45.504C415.832 38.464 415.128 32.8107 413.72 28.544C412.355 24.2773 410.499 21.0347 408.152 18.816C405.848 16.5973 403.267 15.104 400.408 14.336C397.592 13.568 394.712 13.184 391.768 13.184H383.64V78.848H391.832C394.904 78.848 397.869 78.3573 400.728 77.376C403.587 76.3947 406.147 74.688 408.408 72.256C410.712 69.824 412.525 66.4533 413.848 62.144C415.171 57.792 415.832 52.2453 415.832 45.504ZM431.448 45.504C431.448 52.8 430.659 59.0293 429.08 64.192C427.544 69.3547 425.411 73.6427 422.68 77.056C419.992 80.4267 416.877 83.072 413.336 84.992C409.837 86.8693 406.125 88.192 402.2 88.96C398.275 89.728 394.349 90.112 390.424 90.112H368.792V1.79199H388.952C394.328 1.79199 399.533 2.36799 404.568 3.52C409.645 4.67199 414.189 6.80533 418.2 9.92C422.253 13.0347 425.475 17.4507 427.864 23.168C430.253 28.8853 431.448 36.3307 431.448 45.504Z" fill="white"/>
<path d="M326.73 45.952C326.73 55.04 325.471 63.04 322.954 69.952C320.437 76.8213 316.682 82.1973 311.69 86.08C306.698 89.92 300.511 91.84 293.13 91.84C285.791 91.84 279.605 89.9627 274.57 86.208C269.578 82.4107 265.823 77.0987 263.306 70.272C260.789 63.4027 259.53 55.3387 259.53 46.08C259.53 36.9493 260.789 28.9493 263.306 22.08C265.823 15.168 269.578 9.77067 274.57 5.888C279.605 1.96267 285.791 0 293.13 0C300.511 0 306.698 1.89867 311.69 5.69601C316.682 9.49334 320.437 14.848 322.954 21.76C325.471 28.6293 326.73 36.6933 326.73 45.952ZM311.37 45.952C311.37 34.5173 309.941 25.9413 307.082 20.224C304.266 14.464 299.615 11.584 293.13 11.584C286.645 11.584 281.973 14.4853 279.114 20.288C276.298 26.048 274.89 34.6453 274.89 46.08C274.89 57.472 276.341 66.0267 279.242 71.744C282.143 77.4187 286.773 80.256 293.13 80.256C299.701 80.256 304.373 77.3973 307.146 71.68C309.962 65.92 311.37 57.344 311.37 45.952Z" fill="white" fill-opacity="0.5"/>
<path d="M195.644 0C201.617 0 206.652 0.789335 210.748 2.368C214.887 3.904 218.727 6.12267 222.268 9.024L214.524 18.24C211.879 16.0213 209.041 14.3787 206.012 13.312C202.983 12.2453 199.761 11.712 196.348 11.712C191.953 11.712 187.9 12.8213 184.188 15.04C180.476 17.2587 177.489 20.864 175.228 25.856C173.009 30.848 171.9 37.504 171.9 45.824C171.9 53.9733 172.967 60.544 175.1 65.536C177.233 70.528 180.156 74.1547 183.868 76.416C187.58 78.6773 191.74 79.808 196.348 79.808C201.084 79.808 205.009 79.04 208.124 77.504C211.239 75.9253 213.991 74.1547 216.38 72.192L223.548 81.344C220.604 84.2027 216.871 86.6773 212.348 88.768C207.825 90.816 202.321 91.84 195.836 91.84C188.369 91.84 181.649 90.0907 175.676 86.592C169.745 83.0507 165.052 77.8667 161.596 71.04C158.183 64.2133 156.476 55.808 156.476 45.824C156.476 35.9253 158.247 27.584 161.788 20.8C165.329 13.9733 170.065 8.81067 175.996 5.312C181.927 1.77067 188.476 0 195.644 0Z" fill="white" fill-opacity="0.5"/>
<path d="M49.536 9.112L56.128 19.48L12.352 45.912L56.128 72.344L49.088 82.648L0 52.056V39.768L49.536 9.112Z" fill="white" fill-opacity="0.5"/>
<rect x="80" y="87.0796" width="96.4126" height="11.881" transform="rotate(-64.4269 80 87.0796)" fill="white" fill-opacity="0.5"/>
</svg>
